<?xml version="1.0" encoding="UTF-8" standalone="no"?>
<svg
   xmlns:dc="http://purl.org/dc/elements/1.1/"
   xmlns:cc="http://creativecommons.org/ns#"
   xmlns:rdf="http://www.w3.org/1999/02/22-rdf-syntax-ns#"
   xmlns:svg="http://www.w3.org/2000/svg"
   xmlns="http://www.w3.org/2000/svg"
   xmlns:sodipodi="http://sodipodi.sourceforge.net/DTD/sodipodi-0.dtd"
   xmlns:inkscape="http://www.inkscape.org/namespaces/inkscape"
   version="1.1"
   id="svg54"
   width="220"
   height="220"
   viewBox="0 0 220 220"
   sodipodi:docname="ma.svg"
   inkscape:version="1.0.1 (3bc2e813f5, 2020-09-07)">
  <metadata
     id="metadata60">
    <rdf:RDF>
      <cc:Work
         rdf:about="">
        <dc:format>image/svg+xml</dc:format>
        <dc:type
           rdf:resource="http://purl.org/dc/dcmitype/StillImage" />
        <dc:title></dc:title>
      </cc:Work>
    </rdf:RDF>
  </metadata>
  <defs
     id="defs58" />
  <sodipodi:namedview
     pagecolor="#000000"
     bordercolor="#666666"
     borderopacity="1"
     objecttolerance="10"
     gridtolerance="10"
     guidetolerance="10"
     inkscape:pageopacity="0"
     inkscape:pageshadow="2"
     inkscape:window-width="1600"
     inkscape:window-height="838"
     id="namedview56"
     showgrid="false"
     inkscape:zoom="2.1534616"
     inkscape:cx="135.73828"
     inkscape:cy="109.86427"
     inkscape:window-x="-8"
     inkscape:window-y="-8"
     inkscape:window-maximized="1"
     inkscape:current-layer="g108" />
  <g
     inkscape:groupmode="layer"
     inkscape:label="Image"
     id="g62">
    <g
       id="g108"
       style="opacity:1">
      <path
         id="rect178"
         style="fill:#ffffff"
         d="m 205.59824,13.486961 c -0.69925,0.0041 -1.94973,0.397707 -3.20508,1.046875 -1.6738,0.865555 -4.02384,1.574219 -5.22266,1.574219 -2.32355,0 -23.52134,11.623674 -33.29297,18.255859 l -5.87304,3.986329 -5.37696,-1.828126 c -2.95744,-1.005265 -5.37695,-2.09545 -5.37695,-2.421874 0,-0.326427 2.025,-1.873068 4.5,-3.4375 4.37152,-2.763212 5.09124,-3.631411 3.95312,-4.769532 -0.30122,-0.301227 -4.12621,0.249642 -8.5,1.22461 -4.37377,0.974967 -7.95312,1.451174 -7.95312,1.05664 0,-0.91962 3.90554,-4.465448 6.5,-5.90039 3.13758,-1.735332 -0.0894,-1.441541 -8.54102,0.777343 -4.07272,1.069256 -7.55627,1.793346 -7.74218,1.607422 -0.18593,-0.185923 0.92682,-1.612586 2.47265,-3.169922 4.57066,-4.604668 0.94147,-4.092281 -13.34179,1.886719 -9.65637,4.042177 -15.08289,5.683615 -21.847663,6.607422 -4.94999,0.675981 -13.67778,2.816697 -19.39453,4.757812 l -10.39453,3.529297 -2.70508,-2 c -7.7727,-5.746603 -27.90498,-17.349906 -30.71289,-17.701171 -1.21419,-0.151893 -4.77028,-1.448908 -7.90234,-2.882813 -3.13206,-1.433903 -5.96422,-2.338922 -6.29297,-2.011719 -1.14966,1.144261 -1.29227,24.552485 -0.16602,27.271485 0.64122,1.548038 3.06334,3.710466 5.77735,5.162109 6.2093,3.321164 6.59667,4.869143 1.08203,4.318359 -5.26651,-0.526001 -3.53389,1.121088 2.95898,2.8125 5.03915,1.312714 5.57666,2.863201 1,2.884766 -2.46623,0.01162 -2.88826,0.248777 -1.75,0.984375 1.19725,0.773723 0.99542,0.992233 -1,1.085938 -2.26797,0.106504 -2.19836,0.214347 0.75,1.160156 3.89628,1.249894 3.97765,1.722404 0.80274,4.705078 l -2.44922,2.300781 1.73828,4.623047 c 1.52357,4.052456 1.58227,5.30519 0.4668,10.125 -1.7909,7.738239 -0.93013,20.966865 1.95703,30.058585 2.59294,8.16522 10.80387,20.38069 17.29883,25.73439 4.34952,3.58524 21.66523,12.25247 30.26757,15.15039 13.59197,4.5788 35.606403,6.32864 51.212893,4.07031 7.41851,-1.07349 29.31279,-7.22301 35.67969,-10.02148 4.78018,-2.10106 11.36545,-7.04104 15.32031,-11.49219 11.83032,-13.31488 16.34633,-21.14212 17.99024,-31.17969 1.41487,-8.639102 1.16584,-20.657592 -0.53125,-25.656253 -1.44854,-4.26657 -1.4039,-4.607706 1.38476,-10.785156 5.44274,-12.056775 7.55367,-22.787346 7.58399,-38.544922 0.015,-7.791666 -0.26752,-14.462829 -0.62891,-14.824218 -0.0903,-0.09035 -0.26301,-0.132236 -0.49609,-0.13086 z m -88.07813,23.714844 c 0.25808,-0.0071 0.82564,0.115471 1.73047,0.318359 1.375,0.30831 2.8375,0.56671 3.25,0.574219 0.4125,0.0075 0.75,0.463673 0.75,1.013672 0,1.501885 -2.36614,1.20382 -4.55859,-0.574219 -1.17094,-0.949607 -1.60201,-1.320234 -1.17188,-1.332031 z m -5.25586,4.90625 c 1.85296,0 2.74428,10.414273 0.98438,11.501953 -0.55103,0.340556 -1.42855,-0.501646 -1.94922,-1.871094 -1.00422,-2.64132 -0.30395,-9.630859 0.96484,-9.630859 z m 75.73242,2.208984 c 0.37464,-0.02021 0.23319,0.68006 -0.35351,2.208985 -0.64255,1.674467 -2.39258,2.190451 -2.39258,0.705078 0,-0.482656 0.675,-1.438358 1.5,-2.123047 0.61057,-0.506735 1.02131,-0.778892 1.24609,-0.791016 z m -67.16406,3.791016 c 1.74635,0 1.74351,0.198622 -0.082,7 -0.81194,3.025 -1.48175,5.6125 -1.48828,5.75 -0.007,0.1375 0.63716,0.25 1.42969,0.25 0.79254,0 1.74867,0.498498 2.125,1.107422 0.45625,0.738223 0.003,0.890936 -1.35743,0.458984 -1.12259,-0.356297 -2.32984,-0.179795 -2.68359,0.392578 -0.92309,1.493599 -2.49579,1.282038 -3.15039,-0.423828 -0.85798,-2.235852 3.54823,-14.535156 5.20703,-14.535156 z m 48.30078,2.130859 c 0.17732,0.07727 0.14046,0.50281 -0.0176,1.31836 -0.37665,1.943623 -2.86523,3.468553 -2.86523,1.755859 0,-0.528489 0.72679,-1.563443 1.61523,-2.300781 0.69877,-0.579927 1.09026,-0.850704 1.26758,-0.773438 z m -63.39648,7.869141 c 1.54493,0 6.73743,10.605868 6.29883,12.865234 -0.66768,3.43949 -2.83565,1.816569 -5.76172,-4.314453 -3.08962,-6.473732 -3.21928,-8.550781 -0.53711,-8.550781 z m -36.271483,8.544922 c 11.49512,-0.0647 22.89122,3.981716 30.638673,11.648437 4.7068,4.657759 8.14648,10.487901 8.14648,13.806641 0,5.281335 -7.50306,14.509885 -16.000003,19.679685 -7.89807,4.80544 -23.597,6.74602 -34.2539,4.23438 -9.67083,-2.27925 -19.68289,-9.70608 -24.15235,-17.917971 -2.58375,-4.747206 -2.73694,-5.571529 -1.69336,-9.054688 1.69125,-5.644891 9.84484,-14.012918 17.28125,-17.734375 6.20244,-3.103929 13.13613,-4.623287 20.03321,-4.662109 z m 86.361323,0.02539 c 6.93618,-8.94e-4 13.91675,1.44827 20.09571,4.464844 7.29642,3.562128 15.72495,12.222879 17.42773,17.90625 1.04358,3.483159 0.89039,4.307483 -1.69336,9.054688 -3.55133,6.524951 -9.02646,11.355441 -17.40625,15.357421 -5.81296,2.77614 -7.60983,3.13087 -17,3.36133 -6.69111,0.16422 -11.95101,-0.22236 -14.5,-1.06445 -13.27223,-4.38465 -25.5,-15.7252 -25.5,-23.650395 0,-3.26109 3.42865,-9.094346 8.16406,-13.890625 7.41263,-7.507927 18.85182,-11.537572 30.41211,-11.539063 z m 0.15625,7.417969 c -8.83405,-0.212251 -15.73242,6.560477 -15.73242,17.103516 0,4.630785 0.37227,5.522131 3.55664,8.525391 4.15657,3.920137 7.8242,5.168737 15.55859,5.292967 4.21217,0.0677 6.25553,-0.41377 8.17774,-1.92578 3.52516,-2.77289 5.06622,-8.075599 4.41992,-15.203125 -0.61388,-6.769938 -2.27009,-9.171441 -8.21289,-11.900391 -2.66793,-1.225121 -5.29404,-1.833147 -7.76758,-1.892578 z m -88.173823,1.548828 c -8.03193,0.06151 -12.35819,5.159329 -13.3086,15.640625 -0.43672,4.816215 -0.19585,6.232492 1.35938,7.982422 3.86564,4.349589 7.58283,5.832029 14.625,5.835939 5.94256,0.003 7.09355,-0.31939 9.78711,-2.7461 2.04231,-1.83999 3.53145,-4.57002 4.50195,-8.249995 1.90854,-7.23684 1.06074,-11.464118 -2.89258,-14.423828 -3.8148,-2.856 -5.87783,-3.517655 -12.41797,-3.984375 -0.5685,-0.04057 -1.11883,-0.05879 -1.65429,-0.05469 z m 46.410153,44.462896 c 8.13132,0 8.44647,0.53263 5.03125,8.5 -1.1,2.5662 -2,5.11102 -2,5.65625 0,0.54524 2.475,3.58641 5.5,6.75781 3.025,3.1714 5.5,6.28801 5.5,6.92578 0,2.74278 -4.08834,0.76074 -8.88086,-4.30664 l -5.16992,-5.46679 -3.4961,4.86523 c -3.90999,5.44244 -7.98675,8.6313 -8.98046,7.02344 -0.34766,-0.56253 1.92413,-4.35991 5.04882,-8.43946 l 5.68164,-7.41796 -3.19531,-5.58399 c -4.32081,-7.55199 -3.76038,-8.51367 4.96094,-8.51367 z m 26.4375,0.40234 c 0.94742,-0.004 1.98624,0.22309 2.60156,0.60352 1.32135,0.81691 1.32059,1.08415 -0.008,2.3418 -1.70765,1.61633 -14.72712,2.90337 -15.57031,1.53906 -1.04978,-1.69857 0.6498,-2.77468 5.34375,-3.38281 2.59968,-0.3368 5.6298,-0.79549 6.73437,-1.01758 0.27614,-0.0555 0.58263,-0.0825 0.89844,-0.084 z m -53.109373,0.043 c 0.24764,0.0172 0.48557,0.0654 0.70312,0.14844 0.825,0.31496 3.66497,0.92226 6.31055,1.34961 5.15014,0.83193 7.327813,2.21534 6.244143,3.96875 -0.958793,1.55135 -4.260943,1.29761 -10.324223,-0.79688 -2.8983,-1.00119 -5.58494,-2.13767 -5.9707,-2.52343 -0.90927,-0.90926 1.30362,-2.2665 3.03711,-2.14649 z m 44.740233,6.6836 c 1.36216,-0.005 3.07304,0.0264 5.21289,0.0859 8.27464,0.23006 10.25,0.57163 10.25,1.77149 0,1.71666 -0.13687,1.73113 -11.75,1.27734 -6.94848,-0.27152 -8.75,-0.64985 -8.75,-1.83789 0,-0.93697 0.95063,-1.28253 5.03711,-1.29687 z m -49.828123,1.01171 c 1.30527,7.1e-4 2.97906,0.0881 5.06054,0.26172 8.23149,0.68648 12.22554,1.98782 11.19922,3.64844 -0.67741,1.09607 -3.5515,1.05694 -11.96875,-0.16406 -7.51038,-1.08945 -8.80502,-1.58274 -7.92187,-3.01172 0.30571,-0.49464 1.4554,-0.73555 3.63086,-0.73438 z m -23.8125,1.93555 c 0.44415,-0.008 1.687,0.6314 3.33008,1.92383 1.39842,1.1 2.08277,2 1.51953,2 -0.56324,0 -2.08634,-0.8851 -3.38477,-1.9668 -1.55331,-1.29404 -1.90899,-1.94911 -1.46484,-1.95703 z m 69.337893,1.10742 c 1.43358,0.1113 5.04648,1.09275 8.6914,2.38672 5.77376,2.04972 7.57422,3.1328 7.57422,4.5586 0,2.78387 -4.28244,2.32085 -12.2832,-1.33008 -6.42689,-2.93275 -8.00564,-4.91898 -4.45703,-5.60742 0.10953,-0.0213 0.26981,-0.0237 0.47461,-0.008 z m -31.400393,4.02344 c 0.49453,0.003 0.87456,0.0426 1.09961,0.12891 2.812053,1.07909 0.50615,3.40129 -3.99024,4.01758 -2.44278,0.33483 -5.45549,0.84566 -6.69336,1.13671 -1.23788,0.29104 -2.92178,0.0931 -3.74218,-0.43945 -0.96607,-0.62713 -1.14224,-1.28437 -0.5,-1.86719 1.2628,-1.14595 10.36442,-2.99493 13.82617,-2.97656 z"
         sodipodi:nodetypes="ssscccsssssssssssccsssssssssssscccsssssssssssssssssssssssssssssscsscsssssssssssssssssssssssssssssssssssssssssssscssssssssssscccssccssscsssssssssssssssssssscsssscsssccssssccccssssc" />
      <text
         xml:space="preserve"
         style="font-style:normal;font-weight:normal;font-size:50.786px;line-height:1.25;font-family:sans-serif;fill:#ffffff;fill-opacity:1;stroke:none;stroke-width:1.26964"
         x="6.2135353"
         y="224.81593"
         id="text176"
         transform="scale(1.0864524,0.9204269)"><tspan
           sodipodi:role="line"
           id="tspan174"
           x="6.2135353"
           y="224.81593"
           style="stroke-width:1.26964">GOROX</tspan></text>
    </g>
  </g>
</svg>
